<svg xmlns="http://www.w3.org/2000/svg" width="13" height="12" viewBox="0 0 13 12" fill="none">
<path fill-rule="evenodd" clip-rule="evenodd" d="M12.3147 7.00088C12.7367 7.00088 12.9595 6.50142 12.6777 6.18739L7.43558 0.345784C7.03821 -0.0970324 6.34443 -0.0970319 5.94706 0.345784L0.672917 6.22303C0.403459 6.5233 0.616569 7.00088 1.02002 7.00088V7.00088C1.27758 7.00088 1.48638 7.20968 1.48638 7.46725V10.2006C1.48638 10.7529 1.9341 11.2006 2.48638 11.2006H4.1409C4.69319 11.2006 5.1409 10.7529 5.1409 10.2006V9.38851C5.1409 8.83623 5.58862 8.38852 6.1409 8.38852H7.24309C7.79537 8.38852 8.24309 8.83623 8.24309 9.38852V10.2006C8.24309 10.7529 8.6908 11.2006 9.24309 11.2006H10.827C11.3793 11.2006 11.827 10.7529 11.827 10.2006V7.48861C11.827 7.21925 12.0454 7.00088 12.3147 7.00088V7.00088Z" fill="white"/>
</svg>