<svg width="364" height="88" viewBox="0 0 364 88" fill="none" xmlns="http://www.w3.org/2000/svg">
<circle cx="43.5" cy="44.5" r="39" fill="#55C6D7" stroke="white" stroke-width="9"/>
<g filter="url(#filter0_d_455_648)">
<mask id="path-2-outside-1_455_648" maskUnits="userSpaceOnUse" x="111" y="3" width="249" height="76" fill="black">
<rect fill="white" x="111" y="3" width="249" height="76"/>
<path d="M112.715 77V5.61328H132.002V61.4238H159.492V77H112.715ZM226.715 41.209C226.715 53.2207 223.769 62.3516 217.877 68.6016C211.985 74.8516 203.359 77.9766 191.998 77.9766C180.8 77.9766 172.206 74.8353 166.217 68.5527C160.26 62.2702 157.281 53.123 157.281 41.1113C157.281 29.2298 160.243 20.1641 166.168 13.9141C172.125 7.63151 180.768 4.49023 192.096 4.49023C203.456 4.49023 212.066 7.59896 217.926 13.8164C223.785 20.0339 226.715 29.1647 226.715 41.209ZM177.594 41.209C177.594 55.0111 182.395 61.9121 191.998 61.9121C196.881 61.9121 200.494 60.2357 202.838 56.8828C205.214 53.5299 206.402 48.3053 206.402 41.209C206.402 34.0801 205.198 28.8229 202.789 25.4375C200.413 22.0195 196.848 20.3105 192.096 20.3105C182.428 20.3105 177.594 27.2767 177.594 41.209ZM257.268 35.2031H288.078V73.6797C279.712 76.5443 270.516 77.9766 260.49 77.9766C249.488 77.9766 240.975 74.7865 234.953 68.4062C228.964 62.026 225.969 52.9277 225.969 41.1113C225.969 29.5879 229.257 20.6198 235.832 14.207C242.408 7.79427 251.62 4.58789 263.469 4.58789C267.961 4.58789 272.193 5.01107 276.164 5.85742C280.168 6.70378 283.651 7.77799 286.613 9.08008L280.51 24.2168C275.367 21.6777 269.719 20.4082 263.566 20.4082C257.935 20.4082 253.573 22.2474 250.48 25.9258C247.421 29.5716 245.891 34.7962 245.891 41.5996C245.891 48.2728 247.274 53.3672 250.041 56.8828C252.84 60.3659 256.861 62.1074 262.102 62.1074C264.966 62.1074 267.603 61.8307 270.012 61.2773V50.0957H257.268V35.2031ZM358.426 41.209C358.426 53.2207 355.48 62.3516 349.588 68.6016C343.696 74.8516 335.07 77.9766 323.709 77.9766C312.511 77.9766 303.917 74.8353 297.928 68.5527C291.971 62.2702 288.992 53.123 288.992 41.1113C288.992 29.2298 291.954 20.1641 297.879 13.9141C303.836 7.63151 312.479 4.49023 323.807 4.49023C335.167 4.49023 343.777 7.59896 349.637 13.8164C355.496 20.0339 358.426 29.1647 358.426 41.209ZM309.305 41.209C309.305 55.0111 314.106 61.9121 323.709 61.9121C328.592 61.9121 332.205 60.2357 334.549 56.8828C336.925 53.5299 338.113 48.3053 338.113 41.209C338.113 34.0801 336.909 28.8229 334.5 25.4375C332.124 22.0195 328.559 20.3105 323.807 20.3105C314.139 20.3105 309.305 27.2767 309.305 41.209Z"/>
</mask>
<path d="M112.715 77V5.61328H132.002V61.4238H159.492V77H112.715ZM226.715 41.209C226.715 53.2207 223.769 62.3516 217.877 68.6016C211.985 74.8516 203.359 77.9766 191.998 77.9766C180.8 77.9766 172.206 74.8353 166.217 68.5527C160.26 62.2702 157.281 53.123 157.281 41.1113C157.281 29.2298 160.243 20.1641 166.168 13.9141C172.125 7.63151 180.768 4.49023 192.096 4.49023C203.456 4.49023 212.066 7.59896 217.926 13.8164C223.785 20.0339 226.715 29.1647 226.715 41.209ZM177.594 41.209C177.594 55.0111 182.395 61.9121 191.998 61.9121C196.881 61.9121 200.494 60.2357 202.838 56.8828C205.214 53.5299 206.402 48.3053 206.402 41.209C206.402 34.0801 205.198 28.8229 202.789 25.4375C200.413 22.0195 196.848 20.3105 192.096 20.3105C182.428 20.3105 177.594 27.2767 177.594 41.209ZM257.268 35.2031H288.078V73.6797C279.712 76.5443 270.516 77.9766 260.49 77.9766C249.488 77.9766 240.975 74.7865 234.953 68.4062C228.964 62.026 225.969 52.9277 225.969 41.1113C225.969 29.5879 229.257 20.6198 235.832 14.207C242.408 7.79427 251.62 4.58789 263.469 4.58789C267.961 4.58789 272.193 5.01107 276.164 5.85742C280.168 6.70378 283.651 7.77799 286.613 9.08008L280.51 24.2168C275.367 21.6777 269.719 20.4082 263.566 20.4082C257.935 20.4082 253.573 22.2474 250.48 25.9258C247.421 29.5716 245.891 34.7962 245.891 41.5996C245.891 48.2728 247.274 53.3672 250.041 56.8828C252.84 60.3659 256.861 62.1074 262.102 62.1074C264.966 62.1074 267.603 61.8307 270.012 61.2773V50.0957H257.268V35.2031ZM358.426 41.209C358.426 53.2207 355.48 62.3516 349.588 68.6016C343.696 74.8516 335.07 77.9766 323.709 77.9766C312.511 77.9766 303.917 74.8353 297.928 68.5527C291.971 62.2702 288.992 53.123 288.992 41.1113C288.992 29.2298 291.954 20.1641 297.879 13.9141C303.836 7.63151 312.479 4.49023 323.807 4.49023C335.167 4.49023 343.777 7.59896 349.637 13.8164C355.496 20.0339 358.426 29.1647 358.426 41.209ZM309.305 41.209C309.305 55.0111 314.106 61.9121 323.709 61.9121C328.592 61.9121 332.205 60.2357 334.549 56.8828C336.925 53.5299 338.113 48.3053 338.113 41.209C338.113 34.0801 336.909 28.8229 334.5 25.4375C332.124 22.0195 328.559 20.3105 323.807 20.3105C314.139 20.3105 309.305 27.2767 309.305 41.209Z" fill="white"/>
<path d="M112.715 77H111.715V78H112.715V77ZM112.715 5.61328V4.61328H111.715V5.61328H112.715ZM132.002 5.61328H133.002V4.61328H132.002V5.61328ZM132.002 61.4238H131.002V62.4238H132.002V61.4238ZM159.492 61.4238H160.492V60.4238H159.492V61.4238ZM159.492 77V78H160.492V77H159.492ZM113.715 77V5.61328H111.715V77H113.715ZM112.715 6.61328H132.002V4.61328H112.715V6.61328ZM131.002 5.61328V61.4238H133.002V5.61328H131.002ZM132.002 62.4238H159.492V60.4238H132.002V62.4238ZM158.492 61.4238V77H160.492V61.4238H158.492ZM159.492 76H112.715V78H159.492V76ZM217.877 68.6016L217.149 67.9156L217.877 68.6016ZM166.217 68.5527L165.491 69.2408L165.493 69.2428L166.217 68.5527ZM166.168 13.9141L165.442 13.226L165.442 13.2261L166.168 13.9141ZM202.838 56.8828L202.022 56.3046L202.018 56.3099L202.838 56.8828ZM202.789 25.4375L201.968 26.0084L201.974 26.0173L202.789 25.4375ZM225.715 41.209C225.715 53.0679 222.807 61.9142 217.149 67.9156L218.605 69.2875C224.731 62.789 227.715 53.3735 227.715 41.209H225.715ZM217.149 67.9156C211.502 73.9063 203.176 76.9766 191.998 76.9766V78.9766C203.541 78.9766 212.468 75.7968 218.605 69.2875L217.149 67.9156ZM191.998 76.9766C180.99 76.9766 172.691 73.894 166.941 67.8627L165.493 69.2428C171.722 75.7765 180.61 78.9766 191.998 78.9766V76.9766ZM166.942 67.8647C161.22 61.8297 158.281 52.9672 158.281 41.1113H156.281C156.281 53.2789 159.299 62.7107 165.491 69.2408L166.942 67.8647ZM158.281 41.1113C158.281 29.3874 161.203 20.6054 166.894 14.602L165.442 13.2261C159.284 19.7227 156.281 29.0722 156.281 41.1113H158.281ZM166.894 14.6021C172.608 8.57508 180.953 5.49023 192.096 5.49023V3.49023C180.582 3.49023 171.642 6.68794 165.442 13.226L166.894 14.6021ZM192.096 5.49023C203.276 5.49023 211.584 8.5452 217.198 14.5022L218.654 13.1306C212.549 6.65272 203.637 3.49023 192.096 3.49023V5.49023ZM217.198 14.5022C222.822 20.4698 225.715 29.3149 225.715 41.209H227.715C227.715 29.0146 224.748 19.5979 218.654 13.1306L217.198 14.5022ZM176.594 41.209C176.594 48.1952 177.803 53.6127 180.374 57.3074C182.99 61.0681 186.923 62.9121 191.998 62.9121V60.9121C187.47 60.9121 184.201 59.3056 182.016 56.1652C179.785 52.9589 178.594 48.0249 178.594 41.209H176.594ZM191.998 62.9121C197.135 62.9121 201.089 61.1304 203.657 57.4557L202.018 56.3099C199.899 59.341 196.626 60.9121 191.998 60.9121V62.9121ZM203.654 57.461C206.209 53.8555 207.402 48.3784 207.402 41.209H205.402C205.402 48.2323 204.219 53.2044 202.022 56.3046L203.654 57.461ZM207.402 41.209C207.402 34.0052 206.192 28.4956 203.604 24.8577L201.974 26.0173C204.204 29.1503 205.402 34.155 205.402 41.209H207.402ZM203.61 24.8667C201.018 21.1386 197.122 19.3105 192.096 19.3105V21.3105C196.575 21.3105 199.807 22.9005 201.968 26.0083L203.61 24.8667ZM192.096 19.3105C186.987 19.3105 183.03 21.1717 180.398 24.965C177.811 28.6921 176.594 34.158 176.594 41.209H178.594C178.594 34.3276 179.793 29.3443 182.041 26.1053C184.243 22.9324 187.536 21.3105 192.096 21.3105V19.3105ZM257.268 35.2031V34.2031H256.268V35.2031H257.268ZM288.078 35.2031H289.078V34.2031H288.078V35.2031ZM288.078 73.6797L288.402 74.6258L289.078 74.3943V73.6797H288.078ZM234.953 68.4062L234.224 69.0907L234.226 69.0927L234.953 68.4062ZM235.832 14.207L235.134 13.4911L235.832 14.207ZM276.164 5.85742L275.956 6.83546L275.957 6.8358L276.164 5.85742ZM286.613 9.08008L287.541 9.45405L287.903 8.55479L287.016 8.16462L286.613 9.08008ZM280.51 24.2168L280.067 25.1135L281.034 25.5908L281.437 24.5908L280.51 24.2168ZM250.48 25.9258L249.715 25.2823L249.714 25.2829L250.48 25.9258ZM250.041 56.8828L249.255 57.5013L249.262 57.5093L250.041 56.8828ZM270.012 61.2773L270.236 62.252L271.012 62.0737V61.2773H270.012ZM270.012 50.0957H271.012V49.0957H270.012V50.0957ZM257.268 50.0957H256.268V51.0957H257.268V50.0957ZM257.268 36.2031H288.078V34.2031H257.268V36.2031ZM287.078 35.2031V73.6797H289.078V35.2031H287.078ZM287.754 72.7336C279.505 75.5581 270.421 76.9766 260.49 76.9766V78.9766C270.612 78.9766 279.919 77.5305 288.402 74.6258L287.754 72.7336ZM260.49 76.9766C249.688 76.9766 241.468 73.8515 235.68 67.7198L234.226 69.0927C240.483 75.7214 249.287 78.9766 260.49 78.9766V76.9766ZM235.682 67.7218C229.92 61.584 226.969 52.7642 226.969 41.1113H224.969C224.969 53.0913 228.007 62.4681 234.224 69.0907L235.682 67.7218ZM226.969 41.1113C226.969 29.7848 230.194 21.1022 236.53 14.9229L235.134 13.4911C228.319 20.1374 224.969 29.391 224.969 41.1113H226.969ZM236.53 14.9229C242.869 8.74078 251.802 5.58789 263.469 5.58789V3.58789C251.438 3.58789 241.946 6.84776 235.134 13.4911L236.53 14.9229ZM263.469 5.58789C267.898 5.58789 272.06 6.00516 275.956 6.83546L276.372 4.87938C272.326 4.01698 268.024 3.58789 263.469 3.58789V5.58789ZM275.957 6.8358C279.911 7.6715 283.325 8.72722 286.211 9.99554L287.016 8.16462C283.977 6.82877 280.425 5.73606 276.371 4.87904L275.957 6.8358ZM285.686 8.70611L279.582 23.8428L281.437 24.5908L287.541 9.45405L285.686 8.70611ZM280.952 23.3201C275.662 20.7082 269.861 19.4082 263.566 19.4082V21.4082C269.577 21.4082 275.071 22.6473 280.067 25.1135L280.952 23.3201ZM263.566 19.4082C257.696 19.4082 253.031 21.3381 249.715 25.2823L251.246 26.5693C254.115 23.1567 258.174 21.4082 263.566 21.4082V19.4082ZM249.714 25.2829C246.45 29.1725 244.891 34.6602 244.891 41.5996H246.891C246.891 34.9322 248.391 29.9708 251.246 26.5687L249.714 25.2829ZM244.891 41.5996C244.891 48.3915 246.296 53.7412 249.255 57.5013L250.827 56.2643C248.252 52.9932 246.891 48.1541 246.891 41.5996H244.891ZM249.262 57.5093C252.285 61.2707 256.616 63.1074 262.102 63.1074V61.1074C257.105 61.1074 253.396 59.4611 250.82 56.2563L249.262 57.5093ZM262.102 63.1074C265.03 63.1074 267.743 62.8246 270.236 62.252L269.788 60.3027C267.463 60.8368 264.902 61.1074 262.102 61.1074V63.1074ZM271.012 61.2773V50.0957H269.012V61.2773H271.012ZM270.012 49.0957H257.268V51.0957H270.012V49.0957ZM258.268 50.0957V35.2031H256.268V50.0957H258.268ZM349.588 68.6016L348.86 67.9156L349.588 68.6016ZM297.928 68.5527L297.202 69.2408L297.204 69.2428L297.928 68.5527ZM297.879 13.9141L297.153 13.226L297.153 13.2261L297.879 13.9141ZM334.549 56.8828L333.733 56.3046L333.729 56.3099L334.549 56.8828ZM334.5 25.4375L333.679 26.0084L333.685 26.0173L334.5 25.4375ZM357.426 41.209C357.426 53.0679 354.518 61.9142 348.86 67.9156L350.316 69.2875C356.442 62.789 359.426 53.3735 359.426 41.209H357.426ZM348.86 67.9156C343.213 73.9063 334.887 76.9766 323.709 76.9766V78.9766C335.252 78.9766 344.179 75.7968 350.316 69.2875L348.86 67.9156ZM323.709 76.9766C312.701 76.9766 304.402 73.894 298.652 67.8627L297.204 69.2428C303.433 75.7765 312.321 78.9766 323.709 78.9766V76.9766ZM298.653 67.8647C292.931 61.8297 289.992 52.9672 289.992 41.1113H287.992C287.992 53.2789 291.01 62.7107 297.202 69.2408L298.653 67.8647ZM289.992 41.1113C289.992 29.3874 292.914 20.6054 298.605 14.602L297.153 13.2261C290.995 19.7227 287.992 29.0722 287.992 41.1113H289.992ZM298.605 14.6021C304.319 8.57508 312.664 5.49023 323.807 5.49023V3.49023C312.293 3.49023 303.353 6.68794 297.153 13.226L298.605 14.6021ZM323.807 5.49023C334.987 5.49023 343.295 8.5452 348.909 14.5022L350.364 13.1306C344.26 6.65272 335.348 3.49023 323.807 3.49023V5.49023ZM348.909 14.5022C354.533 20.4698 357.426 29.3149 357.426 41.209H359.426C359.426 29.0146 356.459 19.5979 350.364 13.1306L348.909 14.5022ZM308.305 41.209C308.305 48.1952 309.514 53.6127 312.085 57.3074C314.701 61.0681 318.634 62.9121 323.709 62.9121V60.9121C319.181 60.9121 315.912 59.3056 313.727 56.1652C311.496 52.9589 310.305 48.0249 310.305 41.209H308.305ZM323.709 62.9121C328.846 62.9121 332.8 61.1304 335.368 57.4557L333.729 56.3099C331.61 59.341 328.337 60.9121 323.709 60.9121V62.9121ZM335.365 57.461C337.92 53.8555 339.113 48.3784 339.113 41.209H337.113C337.113 48.2323 335.93 53.2044 333.733 56.3046L335.365 57.461ZM339.113 41.209C339.113 34.0052 337.903 28.4956 335.315 24.8577L333.685 26.0173C335.914 29.1503 337.113 34.155 337.113 41.209H339.113ZM335.321 24.8667C332.729 21.1386 328.833 19.3105 323.807 19.3105V21.3105C328.286 21.3105 331.518 22.9005 333.679 26.0083L335.321 24.8667ZM323.807 19.3105C318.698 19.3105 314.741 21.1717 312.109 24.965C309.522 28.6921 308.305 34.158 308.305 41.209H310.305C310.305 34.3276 311.504 29.3443 313.752 26.1053C315.953 22.9324 319.247 21.3105 323.807 21.3105V19.3105Z" fill="black" mask="url(#path-2-outside-1_455_648)"/>
</g>
<line x1="100" y1="4.37114e-08" x2="100" y2="88" stroke="white" stroke-width="2"/>
<defs>
<filter id="filter0_d_455_648" x="108.715" y="4.49023" width="253.711" height="81.4863" filterUnits="userSpaceOnUse" color-interpolation-filters="sRGB">
<feFlood flood-opacity="0" result="BackgroundImageFix"/>
<feColorMatrix in="SourceAlpha" type="matrix" values="0 0 0 0 0 0 0 0 0 0 0 0 0 0 0 0 0 0 127 0" result="hardAlpha"/>
<feOffset dy="4"/>
<feGaussianBlur stdDeviation="2"/>
<feComposite in2="hardAlpha" operator="out"/>
<feColorMatrix type="matrix" values="0 0 0 0 0 0 0 0 0 0 0 0 0 0 0 0 0 0 0.25 0"/>
<feBlend mode="normal" in2="BackgroundImageFix" result="effect1_dropShadow_455_648"/>
<feBlend mode="normal" in="SourceGraphic" in2="effect1_dropShadow_455_648" result="shape"/>
</filter>
</defs>
</svg>
